<svg width="1186" height="283" viewBox="0 0 1186 283" fill="none" xmlns="http://www.w3.org/2000/svg">
<path d="M48.3532 165.9V26.4374H99.6863V165.9H48.3532ZM3.60702 48.2426V4.17785H144.433V48.2426H3.60702ZM220.84 100.939C220.84 97.7587 220.347 95.033 219.363 92.7616C218.417 90.4524 216.94 88.6731 214.934 87.4239C212.965 86.1368 210.467 85.4932 207.438 85.4932C204.713 85.4932 202.176 86.0421 199.829 87.14C197.482 88.1999 195.589 89.9035 194.151 92.2506C192.712 94.5977 191.993 97.5694 191.993 101.166H187.677V65.7322H191.766C194.34 61.0759 197.463 57.2903 201.135 54.3753C204.807 51.4604 208.877 49.3404 213.344 48.0155C217.849 46.6526 222.77 45.9712 228.108 45.9712C236.399 45.9712 243.497 47.599 249.402 50.8547C255.346 54.0725 259.945 59.202 263.201 66.2433C266.456 73.2467 268.084 82.2376 268.084 93.2159V165.9H220.84V100.939ZM144.748 165.9V4.17785H191.993V165.9H144.748ZM334.689 168.626C321.136 168.626 309.401 166.203 299.483 161.357C289.602 156.474 282.012 149.451 276.712 140.29C271.45 131.129 268.819 120.283 268.819 107.753C268.819 95.4494 271.469 84.6414 276.769 75.3288C282.069 66.0161 289.659 58.8045 299.539 53.6939C309.458 48.5455 321.098 45.9712 334.462 45.9712C347.295 45.9712 358.595 48.3562 368.362 53.1261C378.167 57.8581 385.795 64.748 391.246 73.7956C396.698 82.8054 399.423 93.5188 399.423 105.936C399.423 107.677 399.347 109.646 399.196 111.841C399.045 113.999 398.817 116.422 398.515 119.11H297.211V94.5787H360.81L354.223 98.4401C354.223 93.7459 353.466 89.8467 351.951 86.7425C350.437 83.6004 348.185 81.2533 345.194 79.7012C342.203 78.1112 338.475 77.3162 334.007 77.3162C329.162 77.3162 325.206 78.2437 322.14 80.0987C319.073 81.9536 316.802 84.7739 315.325 88.5596C313.849 92.3073 313.111 97.1151 313.111 102.983V119.11C313.111 122.971 313.925 126.359 315.553 129.274C317.18 132.151 319.679 134.404 323.048 136.031C326.417 137.621 330.6 138.416 335.597 138.416C338.967 138.416 341.901 138.057 344.399 137.337C346.898 136.58 348.961 135.464 350.589 133.987C352.254 132.511 353.522 130.656 354.393 128.422H397.152C395.032 136.978 391.095 144.265 385.341 150.284C379.586 156.303 372.375 160.865 363.706 163.969C355.075 167.074 345.402 168.626 334.689 168.626ZM516.396 169.761C500.799 169.761 486.906 166.279 474.716 159.313C462.564 152.31 453.062 142.391 446.21 129.558C439.396 116.725 435.989 101.809 435.989 84.8118C435.989 67.7765 439.377 52.9179 446.153 40.236C452.967 27.5163 462.659 17.7304 475.227 10.8784C487.833 3.98857 502.616 0.543639 519.576 0.543639C534.453 0.543639 547.324 3.23144 558.189 8.60703C569.054 13.9826 577.761 21.5728 584.31 31.3776C590.897 41.1824 595.402 52.7854 597.825 66.1865H544.901C543.766 61.2273 541.968 57.1199 539.507 53.8643C537.084 50.5708 534.093 48.129 530.535 46.5391C527.014 44.9491 522.983 44.1541 518.44 44.1541C512.421 44.1541 507.215 45.6116 502.824 48.5265C498.471 51.4415 495.101 55.9274 492.716 61.9844C490.332 68.0415 489.139 75.6506 489.139 84.8118C489.139 94.0866 490.388 101.809 492.887 107.98C495.423 114.15 498.925 118.731 503.392 121.722C507.897 124.674 513.14 126.151 519.121 126.151C523.399 126.151 527.279 125.394 530.762 123.88C534.283 122.365 537.273 120.018 539.734 116.838C542.195 113.62 543.974 109.532 545.072 104.573H597.427C595.307 117.103 590.556 128.309 583.174 138.189C575.792 148.07 566.347 155.811 554.839 161.414C543.33 166.979 530.516 169.761 516.396 169.761ZM659.752 168.626C646.615 168.626 635.012 166.108 624.943 161.073C614.873 156.038 607.056 148.903 601.491 139.666C595.964 130.429 593.2 119.715 593.2 107.526C593.2 95.4116 595.983 84.7172 601.547 75.4424C607.112 66.1676 614.911 58.9749 624.943 53.8643C635.012 48.7537 646.615 46.1984 659.752 46.1984C672.888 46.1984 684.472 48.7537 694.504 53.8643C704.573 58.9749 712.391 66.1676 717.956 75.4424C723.521 84.7172 726.303 95.4116 726.303 107.526C726.303 119.715 723.521 130.429 717.956 139.666C712.429 148.903 704.63 156.038 694.56 161.073C684.491 166.108 672.888 168.626 659.752 168.626ZM659.752 132.284C663.537 132.284 666.85 131.489 669.689 129.899C672.566 128.309 674.837 125.697 676.503 122.062C678.207 118.39 679.058 113.62 679.058 107.753C679.058 101.847 678.207 97.0205 676.503 93.2727C674.837 89.5249 672.566 86.7993 669.689 85.0957C666.812 83.3922 663.499 82.5404 659.752 82.5404C655.89 82.5404 652.521 83.3922 649.644 85.0957C646.767 86.7993 644.514 89.5249 642.887 93.2727C641.259 96.9826 640.445 101.809 640.445 107.753C640.445 113.583 641.259 118.334 642.887 122.006C644.514 125.64 646.748 128.271 649.587 129.899C652.464 131.489 655.852 132.284 659.752 132.284ZM764.769 168.626C756.479 168.626 749.362 167.017 743.418 163.799C737.513 160.543 732.932 155.414 729.676 148.41C726.421 141.369 724.793 132.359 724.793 121.381V48.6969H772.038V113.658C772.038 116.838 772.511 119.583 773.457 121.892C774.441 124.163 775.918 125.943 777.886 127.23C779.893 128.479 782.41 129.104 785.439 129.104C788.164 129.104 790.701 128.574 793.048 127.514C795.395 126.416 797.288 124.693 798.726 122.346C800.165 119.999 800.884 117.028 800.884 113.431H805.2V148.865H801.793C799.218 153.483 796.038 157.269 792.253 160.222C788.505 163.137 784.322 165.256 779.703 166.581C775.085 167.944 770.107 168.626 764.769 168.626ZM801.793 165.9V145.23H800.884V48.6969H848.129V165.9H801.793ZM853.179 165.9V48.6969H899.515V80.4962H900.424V165.9H853.179ZM897.471 90.4902C897.471 80.9126 898.701 72.906 901.162 66.4704C903.66 59.997 907.408 55.1135 912.405 51.82C917.402 48.5265 923.63 46.8798 931.087 46.8798C932.715 46.8798 934.21 46.9365 935.573 47.0501C936.974 47.1637 938.28 47.334 939.491 47.5612V90.036C937.674 90.036 935.857 90.036 934.04 90.036C932.223 90.036 930.406 90.036 928.589 90.036C922.342 90.036 917.137 91.1149 912.973 93.2727C908.847 95.3926 905.724 98.7429 903.604 103.324C901.484 107.866 900.424 113.734 900.424 120.927H897.471V90.4902ZM993.902 169.761C981.03 169.761 970.26 168.19 961.591 165.048C952.96 161.906 946.354 157.269 941.773 151.136C937.231 144.965 934.6 137.319 933.88 128.195H978.854C979.157 130.921 979.933 133.135 981.182 134.839C982.431 136.542 984.21 137.792 986.52 138.587C988.867 139.382 991.857 139.779 995.492 139.779C998.596 139.779 1001.21 139.533 1003.33 139.041C1005.49 138.511 1007.09 137.754 1008.15 136.77C1009.25 135.747 1009.8 134.479 1009.8 132.965C1009.8 131.64 1009.48 130.523 1008.84 129.615C1008.19 128.706 1007.13 127.949 1005.66 127.343C1004.22 126.738 1002.27 126.264 999.807 125.924L976.866 122.744C967.856 121.495 960.266 119.299 954.096 116.157C947.925 112.977 943.25 108.813 940.07 103.664C936.89 98.5158 935.3 92.3831 935.3 85.2661C935.3 76.6348 937.534 69.4043 942.001 63.5744C946.505 57.7067 953.092 53.3153 961.762 50.4004C970.431 47.4476 980.993 45.9712 993.447 45.9712C1007.3 45.9712 1018.47 47.7505 1026.95 51.309C1035.43 54.8296 1041.56 59.5427 1045.35 65.4483C1049.13 71.3539 1051.25 78.1869 1051.71 85.9475H1009.46C1009.2 83.2597 1008.48 81.1019 1007.3 79.4741C1006.17 77.8462 1004.48 76.6727 1002.25 75.9534C1000.02 75.1963 997.082 74.8177 993.447 74.8177C990.343 74.8177 987.807 75.0449 985.838 75.4991C983.87 75.9534 982.412 76.6538 981.466 77.6002C980.519 78.5466 980.046 79.7391 980.046 81.1776C980.046 82.654 980.444 83.8654 981.239 84.8118C982.071 85.7582 983.51 86.5532 985.554 87.1967C987.598 87.8024 990.532 88.3703 994.356 88.9003L1012.98 91.3988C1023.01 92.7238 1031.15 95.033 1037.4 98.3265C1043.68 101.62 1048.26 105.765 1051.14 110.762C1054.02 115.759 1055.46 121.646 1055.46 128.422C1055.46 137.281 1053.03 144.795 1048.19 150.966C1043.34 157.136 1036.32 161.812 1027.12 164.991C1017.92 168.171 1006.85 169.761 993.902 169.761ZM1116.5 168.626C1102.94 168.626 1091.21 166.203 1081.29 161.357C1071.41 156.474 1063.82 149.451 1058.52 140.29C1053.26 131.129 1050.63 120.283 1050.63 107.753C1050.63 95.4494 1053.28 84.6414 1058.58 75.3288C1063.88 66.0161 1071.47 58.8045 1081.35 53.6939C1091.26 48.5455 1102.91 45.9712 1116.27 45.9712C1129.1 45.9712 1140.4 48.3562 1150.17 53.1261C1159.97 57.8581 1167.6 64.748 1173.05 73.7956C1178.5 82.8054 1181.23 93.5188 1181.23 105.936C1181.23 107.677 1181.15 109.646 1181 111.841C1180.85 113.999 1180.62 116.422 1180.32 119.11H1079.02V94.5787H1142.62L1136.03 98.4401C1136.03 93.7459 1135.27 89.8467 1133.76 86.7425C1132.24 83.6004 1129.99 81.2533 1127 79.7012C1124.01 78.1112 1120.28 77.3162 1115.81 77.3162C1110.97 77.3162 1107.01 78.2437 1103.95 80.0987C1100.88 81.9536 1098.61 84.7739 1097.13 88.5596C1095.66 92.3073 1094.92 97.1151 1094.92 102.983V119.11C1094.92 122.971 1095.73 126.359 1097.36 129.274C1098.99 132.151 1101.49 134.404 1104.85 136.031C1108.22 137.621 1112.41 138.416 1117.4 138.416C1120.77 138.416 1123.71 138.057 1126.21 137.337C1128.7 136.58 1130.77 135.464 1132.4 133.987C1134.06 132.511 1135.33 130.656 1136.2 128.422H1178.96C1176.84 136.978 1172.9 144.265 1167.15 150.284C1161.39 156.303 1154.18 160.865 1145.51 163.969C1136.88 167.074 1127.21 168.626 1116.5 168.626Z" fill="#E2E2E2"/>
<path d="M174.122 262.963C170.048 262.963 166.747 262.517 164.218 261.623C161.69 260.715 159.82 259.291 158.608 257.353C157.397 255.4 156.791 252.841 156.791 249.676V230.278V221.329V212.562V201.364H172.191V212.562V221.329V230.278V246.973C172.191 248.109 172.38 248.979 172.759 249.585C173.137 250.176 173.698 250.577 174.44 250.789C175.197 250.986 176.234 251.084 177.551 251.084C177.96 251.084 178.415 251.084 178.914 251.084C179.429 251.084 179.974 251.084 180.55 251.084H181.231V262.6C181.125 262.615 181.012 262.623 180.89 262.623C180.769 262.638 180.656 262.653 180.55 262.668C179.49 262.759 178.415 262.827 177.324 262.873C176.249 262.933 175.182 262.963 174.122 262.963ZM149.341 227.257V215.719H164.559H181.231V227.257H164.559H149.341ZM213.148 235.094C213.148 233.488 212.883 232.133 212.353 231.028C211.838 229.922 211.058 229.082 210.013 228.507C208.983 227.931 207.704 227.643 206.174 227.643C204.766 227.643 203.434 227.961 202.177 228.597C200.935 229.233 199.921 230.218 199.133 231.55C198.361 232.868 197.975 234.526 197.975 236.525H194.908V224.1H197.021C197.99 222.071 199.224 220.352 200.723 218.944C202.237 217.536 203.971 216.468 205.925 215.741C207.878 214.999 210.028 214.628 212.375 214.628C215.737 214.628 218.614 215.272 221.007 216.559C223.414 217.846 225.269 219.837 226.571 222.533C227.874 225.228 228.525 228.62 228.525 232.709V262.6H213.148V235.094ZM182.575 262.6V197.911H197.975V262.6H182.575ZM254.966 263.69C249.908 263.69 245.494 262.714 241.724 260.76C237.968 258.792 235.068 255.968 233.024 252.288C230.995 248.608 229.981 244.27 229.981 239.273C229.981 234.382 230.995 230.074 233.024 226.349C235.053 222.624 237.938 219.739 241.678 217.695C245.434 215.651 249.825 214.628 254.852 214.628C259.789 214.628 264.112 215.628 267.822 217.627C271.532 219.61 274.401 222.427 276.43 226.076C278.459 229.726 279.474 233.988 279.474 238.864C279.474 239.47 279.451 240.136 279.406 240.863C279.376 241.59 279.315 242.385 279.224 243.248H238.862V234.412H267.549L264.551 236.138C264.536 233.912 264.15 232.005 263.393 230.415C262.651 228.809 261.545 227.575 260.076 226.712C258.623 225.849 256.828 225.418 254.693 225.418C252.528 225.418 250.696 225.872 249.196 226.78C247.712 227.674 246.577 229.037 245.789 230.869C245.017 232.701 244.623 235.01 244.608 237.797V242.362C244.608 244.679 245.017 246.647 245.835 248.268C246.653 249.888 247.856 251.122 249.446 251.97C251.036 252.803 252.967 253.219 255.238 253.219C256.828 253.219 258.221 253.007 259.418 252.583C260.629 252.159 261.636 251.554 262.439 250.766C263.241 249.964 263.847 248.979 264.256 247.813H278.475C277.657 251.114 276.173 253.954 274.023 256.331C271.888 258.708 269.192 260.533 265.937 261.805C262.696 263.062 259.039 263.69 254.966 263.69ZM327.235 262.6C327.114 262.297 327.008 261.987 326.917 261.669C326.827 261.336 326.736 261.002 326.645 260.669C326.493 260.064 326.357 259.443 326.236 258.807C326.13 258.171 326.047 257.542 325.986 256.922C325.926 256.301 325.895 255.733 325.895 255.218L325.623 254.9V236.956V234.23V230.006C325.623 228.946 325.388 228.083 324.919 227.416C324.449 226.735 323.707 226.235 322.693 225.917C321.693 225.584 320.391 225.418 318.786 225.418C317.09 225.418 315.719 225.599 314.675 225.963C313.63 226.326 312.827 226.947 312.267 227.825C311.722 228.688 311.396 229.885 311.29 231.414H295.913C296.08 227.749 296.965 224.683 298.571 222.215C300.176 219.731 302.651 217.846 305.998 216.559C309.344 215.272 313.668 214.628 318.968 214.628C324.086 214.628 328.273 215.204 331.528 216.355C334.784 217.506 337.169 219.164 338.683 221.329C340.197 223.479 340.954 226.099 340.954 229.188V254.06C340.954 254.892 341.007 255.801 341.113 256.785C341.235 257.77 341.409 258.769 341.636 259.783C341.863 260.798 342.128 261.737 342.431 262.6H327.235ZM310.791 263.986C307.399 263.986 304.423 263.463 301.864 262.418C299.305 261.358 297.306 259.761 295.868 257.626C294.444 255.491 293.733 252.871 293.733 249.767C293.733 247.026 294.331 244.656 295.527 242.657C296.723 240.658 298.631 239.031 301.251 237.774C303.886 236.502 307.308 235.654 311.517 235.23L319.49 234.435C320.913 234.299 322.064 234.071 322.942 233.753C323.836 233.42 324.502 232.958 324.941 232.368C325.396 231.762 325.623 230.975 325.623 230.006L327.508 233.958C327.372 236.123 327.099 237.781 326.69 238.932C326.297 240.068 325.653 240.916 324.76 241.476C323.881 242.021 322.594 242.4 320.898 242.612L315.788 243.248C314.258 243.43 313.024 243.748 312.085 244.202C311.146 244.656 310.465 245.247 310.041 245.973C309.617 246.7 309.405 247.586 309.405 248.631C309.405 249.767 309.647 250.728 310.132 251.516C310.632 252.288 311.381 252.878 312.381 253.287C313.38 253.681 314.614 253.878 316.083 253.878C317.945 253.878 319.596 253.537 321.034 252.856C322.473 252.159 323.594 251.114 324.396 249.721C325.214 248.313 325.623 246.572 325.623 244.497H328.03L328.076 250.63C327.682 253.416 326.758 255.809 325.305 257.807C323.866 259.806 321.92 261.336 319.467 262.396C317.014 263.456 314.122 263.986 310.791 263.986ZM344.606 262.6V215.719H359.642V228.098H360.006V262.6H344.606ZM358.279 233.004C358.279 229.461 358.809 226.341 359.869 223.646C360.945 220.935 362.58 218.815 364.776 217.286C366.971 215.757 369.712 214.992 372.998 214.992C373.558 214.992 374.088 215.015 374.588 215.06C375.103 215.09 375.602 215.143 376.087 215.219V229.165C375.466 229.165 374.853 229.165 374.247 229.165C373.642 229.165 373.051 229.165 372.476 229.165C369.78 229.165 367.509 229.627 365.661 230.551C363.814 231.459 362.406 232.868 361.437 234.776C360.483 236.668 360.006 239.068 360.006 241.976H358.279V233.004ZM398.158 263.69C393.146 263.69 388.777 262.683 385.052 260.669C381.342 258.655 378.48 255.801 376.466 252.106C374.467 248.411 373.468 244.096 373.468 239.159C373.468 234.223 374.475 229.907 376.489 226.212C378.503 222.518 381.387 219.663 385.143 217.649C388.898 215.635 393.32 214.628 398.408 214.628C403.071 214.628 407.13 215.446 410.582 217.082C414.05 218.702 416.768 220.95 418.736 223.828C420.705 226.705 421.856 229.998 422.189 233.708H406.789C406.441 232.118 405.873 230.808 405.085 229.779C404.298 228.749 403.321 227.992 402.155 227.507C400.989 227.023 399.657 226.78 398.158 226.78C396.159 226.78 394.478 227.227 393.115 228.12C391.752 228.999 390.723 230.354 390.026 232.186C389.33 234.018 388.981 236.343 388.981 239.159C388.981 242.052 389.33 244.414 390.026 246.246C390.723 248.063 391.745 249.403 393.093 250.266C394.44 251.114 396.106 251.538 398.09 251.538C399.664 251.538 401.05 251.281 402.246 250.766C403.442 250.236 404.434 249.411 405.222 248.29C406.024 247.17 406.585 245.731 406.903 243.975H422.166C421.742 247.881 420.508 251.326 418.464 254.309C416.435 257.277 413.686 259.587 410.219 261.237C406.751 262.873 402.731 263.69 398.158 263.69ZM454.02 235.094C454.02 233.488 453.755 232.133 453.225 231.028C452.71 229.922 451.93 229.082 450.886 228.507C449.856 227.931 448.576 227.643 447.047 227.643C445.639 227.643 444.306 227.961 443.049 228.597C441.808 229.233 440.793 230.218 440.006 231.55C439.233 232.868 438.847 234.526 438.847 236.525H435.781V224.1H437.893C438.862 222.071 440.097 220.352 441.596 218.944C443.11 217.536 444.844 216.468 446.797 215.741C448.751 214.999 450.901 214.628 453.248 214.628C456.61 214.628 459.487 215.272 461.879 216.559C464.287 217.846 466.142 219.837 467.444 222.533C468.746 225.228 469.397 228.62 469.397 232.709V262.6H454.02V235.094ZM423.447 262.6V197.911H438.847V262.6H423.447ZM472.761 262.6V215.719H488.161V262.6H472.761ZM472.761 211.426V198.933H488.161V211.426H472.761ZM513.338 262.963C509.265 262.963 505.964 262.517 503.435 261.623C500.906 260.715 499.036 259.291 497.824 257.353C496.613 255.4 496.007 252.841 496.007 249.676V230.278V221.329V212.562V201.364H511.407V212.562V221.329V230.278V246.973C511.407 248.109 511.597 248.979 511.975 249.585C512.354 250.176 512.914 250.577 513.656 250.789C514.413 250.986 515.45 251.084 516.768 251.084C517.177 251.084 517.631 251.084 518.131 251.084C518.645 251.084 519.191 251.084 519.766 251.084H520.447V262.6C520.341 262.615 520.228 262.623 520.107 262.623C519.985 262.638 519.872 262.653 519.766 262.668C518.706 262.759 517.631 262.827 516.541 262.873C515.465 262.933 514.398 262.963 513.338 262.963ZM488.557 227.257V215.719H503.775H520.447V227.257H503.775H488.557ZM543.981 263.69C538.923 263.69 534.509 262.714 530.739 260.76C526.983 258.792 524.084 255.968 522.039 252.288C520.01 248.608 518.996 244.27 518.996 239.273C518.996 234.382 520.01 230.074 522.039 226.349C524.069 222.624 526.953 219.739 530.693 217.695C534.449 215.651 538.84 214.628 543.867 214.628C548.804 214.628 553.127 215.628 556.837 217.627C560.547 219.61 563.416 222.427 565.445 226.076C567.475 229.726 568.489 233.988 568.489 238.864C568.489 239.47 568.466 240.136 568.421 240.863C568.391 241.59 568.33 242.385 568.239 243.248H527.877V234.412H556.564L553.566 236.138C553.551 233.912 553.165 232.005 552.408 230.415C551.666 228.809 550.56 227.575 549.092 226.712C547.638 225.849 545.843 225.418 543.708 225.418C541.543 225.418 539.711 225.872 538.212 226.78C536.728 227.674 535.592 229.037 534.805 230.869C534.032 232.701 533.639 235.01 533.623 237.797V242.362C533.623 244.679 534.032 246.647 534.85 248.268C535.668 249.888 536.872 251.122 538.462 251.97C540.051 252.803 541.982 253.219 544.254 253.219C545.843 253.219 547.237 253.007 548.433 252.583C549.644 252.159 550.651 251.554 551.454 250.766C552.256 249.964 552.862 248.979 553.271 247.813H567.49C566.672 251.114 565.188 253.954 563.038 256.331C560.903 258.708 558.207 260.533 554.952 261.805C551.711 263.062 548.054 263.69 543.981 263.69ZM592.645 263.69C587.632 263.69 583.264 262.683 579.539 260.669C575.829 258.655 572.967 255.801 570.953 252.106C568.954 248.411 567.955 244.096 567.955 239.159C567.955 234.223 568.962 229.907 570.976 226.212C572.99 222.518 575.874 219.663 579.63 217.649C583.385 215.635 587.806 214.628 592.894 214.628C597.558 214.628 601.616 215.446 605.069 217.082C608.537 218.702 611.255 220.95 613.223 223.828C615.192 226.705 616.343 229.998 616.676 233.708H601.276C600.927 232.118 600.36 230.808 599.572 229.779C598.785 228.749 597.808 227.992 596.642 227.507C595.476 227.023 594.144 226.78 592.645 226.78C590.646 226.78 588.965 227.227 587.602 228.12C586.239 228.999 585.21 230.354 584.513 232.186C583.816 234.018 583.468 236.343 583.468 239.159C583.468 242.052 583.816 244.414 584.513 246.246C585.21 248.063 586.232 249.403 587.579 250.266C588.927 251.114 590.593 251.538 592.576 251.538C594.151 251.538 595.537 251.281 596.733 250.766C597.929 250.236 598.921 249.411 599.709 248.29C600.511 247.17 601.071 245.731 601.389 243.975H616.653C616.229 247.881 614.995 251.326 612.951 254.309C610.922 257.277 608.173 259.587 604.706 261.237C601.238 262.873 597.218 263.69 592.645 263.69ZM638.033 262.963C633.96 262.963 630.659 262.517 628.13 261.623C625.601 260.715 623.731 259.291 622.52 257.353C621.308 255.4 620.702 252.841 620.702 249.676V230.278V221.329V212.562V201.364H636.102V212.562V221.329V230.278V246.973C636.102 248.109 636.292 248.979 636.67 249.585C637.049 250.176 637.609 250.577 638.351 250.789C639.108 250.986 640.145 251.084 641.463 251.084C641.872 251.084 642.326 251.084 642.826 251.084C643.341 251.084 643.886 251.084 644.461 251.084H645.142V262.6C645.036 262.615 644.923 262.623 644.802 262.623C644.681 262.638 644.567 262.653 644.461 262.668C643.401 262.759 642.326 262.827 641.236 262.873C640.161 262.933 639.093 262.963 638.033 262.963ZM613.252 227.257V215.719H628.471H645.142V227.257H628.471H613.252ZM662.636 263.69C659.289 263.69 656.412 263.047 654.004 261.76C651.612 260.472 649.757 258.481 648.44 255.786C647.137 253.09 646.486 249.699 646.486 245.61V215.719H661.886V243.225C661.886 244.83 662.144 246.185 662.658 247.291C663.188 248.396 663.968 249.237 664.998 249.812C666.028 250.388 667.307 250.675 668.837 250.675C670.26 250.675 671.592 250.357 672.834 249.721C674.091 249.085 675.106 248.109 675.878 246.791C676.665 245.459 677.059 243.793 677.059 241.794H680.103V254.219H678.172C677.203 256.233 675.954 257.951 674.424 259.375C672.895 260.798 671.131 261.873 669.132 262.6C667.148 263.327 664.983 263.69 662.636 263.69ZM677.422 262.6V253.174H677.059V215.719H692.436V262.6H677.422ZM695.8 262.6V215.719H710.836V228.098H711.2V262.6H695.8ZM709.474 233.004C709.474 229.461 710.004 226.341 711.064 223.646C712.139 220.935 713.774 218.815 715.97 217.286C718.165 215.757 720.906 214.992 724.192 214.992C724.752 214.992 725.282 215.015 725.782 215.06C726.297 215.09 726.797 215.143 727.281 215.219V229.165C726.66 229.165 726.047 229.165 725.441 229.165C724.836 229.165 724.245 229.165 723.67 229.165C720.974 229.165 718.703 229.627 716.856 230.551C715.008 231.459 713.6 232.868 712.631 234.776C711.677 236.668 711.2 239.068 711.2 241.976H709.474V233.004ZM749.647 263.69C744.59 263.69 740.176 262.714 736.405 260.76C732.65 258.792 729.75 255.968 727.706 252.288C725.677 248.608 724.662 244.27 724.662 239.273C724.662 234.382 725.677 230.074 727.706 226.349C729.735 222.624 732.619 219.739 736.36 217.695C740.115 215.651 744.506 214.628 749.534 214.628C754.47 214.628 758.793 215.628 762.503 217.627C766.213 219.61 769.083 222.427 771.112 226.076C773.141 229.726 774.155 233.988 774.155 238.864C774.155 239.47 774.133 240.136 774.087 240.863C774.057 241.59 773.996 242.385 773.906 243.248H733.543V234.412H762.231L759.232 236.138C759.217 233.912 758.831 232.005 758.074 230.415C757.332 228.809 756.227 227.575 754.758 226.712C753.304 225.849 751.51 225.418 749.375 225.418C747.209 225.418 745.377 225.872 743.878 226.78C742.394 227.674 741.258 229.037 740.471 230.869C739.699 232.701 739.305 235.01 739.29 237.797V242.362C739.29 244.679 739.699 246.647 740.516 248.268C741.334 249.888 742.538 251.122 744.128 251.97C745.718 252.803 747.648 253.219 749.92 253.219C751.51 253.219 752.903 253.007 754.099 252.583C755.311 252.159 756.317 251.554 757.12 250.766C757.923 249.964 758.528 248.979 758.937 247.813H773.156C772.338 251.114 770.854 253.954 768.704 256.331C766.569 258.708 763.874 260.533 760.618 261.805C757.377 263.062 753.721 263.69 749.647 263.69ZM790.594 262.6V197.911H805.994V262.6H790.594ZM809.298 262.6V215.719H824.698V262.6H809.298ZM809.298 211.426V198.933H824.698V211.426H809.298ZM857.529 263.69C853.365 263.69 849.92 262.623 847.194 260.488C844.469 258.352 842.462 255.453 841.175 251.788C839.903 248.124 839.267 243.914 839.267 239.159V238.978C839.267 234.268 839.911 230.089 841.198 226.44C842.485 222.79 844.491 219.913 847.217 217.808C849.958 215.688 853.395 214.628 857.529 214.628C861.648 214.628 865.229 215.635 868.273 217.649C871.332 219.663 873.679 222.518 875.314 226.212C876.965 229.907 877.79 234.223 877.79 239.159C877.79 244.096 876.965 248.411 875.314 252.106C873.679 255.801 871.332 258.655 868.273 260.669C865.229 262.683 861.648 263.69 857.529 263.69ZM828.001 262.6V197.911H843.401V227.348H841.857V250.789H842.902V262.6H828.001ZM852.509 251.516C854.554 251.516 856.303 251.031 857.756 250.062C859.225 249.078 860.346 247.647 861.118 245.769C861.905 243.891 862.299 241.628 862.299 238.978C862.299 236.328 861.913 234.094 861.141 232.277C860.368 230.445 859.248 229.067 857.779 228.143C856.325 227.204 854.569 226.735 852.509 226.735C850.45 226.735 848.694 227.212 847.24 228.166C845.786 229.12 844.673 230.521 843.901 232.368C843.144 234.2 842.765 236.441 842.765 239.091C842.765 241.741 843.144 243.997 843.901 245.86C844.673 247.707 845.786 249.116 847.24 250.085C848.694 251.039 850.45 251.516 852.509 251.516ZM879.178 262.6V215.719H894.215V228.098H894.578V262.6H879.178ZM892.852 233.004C892.852 229.461 893.382 226.341 894.442 223.646C895.517 220.935 897.152 218.815 899.348 217.286C901.544 215.757 904.285 214.992 907.571 214.992C908.131 214.992 908.661 215.015 909.16 215.06C909.675 215.09 910.175 215.143 910.66 215.219V229.165C910.039 229.165 909.425 229.165 908.82 229.165C908.214 229.165 907.623 229.165 907.048 229.165C904.353 229.165 902.081 229.627 900.234 230.551C898.387 231.459 896.978 232.868 896.009 234.776C895.055 236.668 894.578 239.068 894.578 241.976H892.852V233.004ZM940.472 262.6C940.351 262.297 940.245 261.987 940.154 261.669C940.063 261.336 939.972 261.002 939.882 260.669C939.73 260.064 939.594 259.443 939.473 258.807C939.367 258.171 939.283 257.542 939.223 256.922C939.162 256.301 939.132 255.733 939.132 255.218L938.859 254.9V236.956V234.23V230.006C938.859 228.946 938.625 228.083 938.155 227.416C937.686 226.735 936.944 226.235 935.929 225.917C934.93 225.584 933.628 225.418 932.023 225.418C930.327 225.418 928.956 225.599 927.911 225.963C926.867 226.326 926.064 226.947 925.504 227.825C924.959 228.688 924.633 229.885 924.527 231.414H909.15C909.316 227.749 910.202 224.683 911.807 222.215C913.412 219.731 915.888 217.846 919.235 216.559C922.581 215.272 926.904 214.628 932.204 214.628C937.322 214.628 941.509 215.204 944.765 216.355C948.021 217.506 950.406 219.164 951.92 221.329C953.434 223.479 954.191 226.099 954.191 229.188V254.06C954.191 254.892 954.244 255.801 954.35 256.785C954.471 257.77 954.646 258.769 954.873 259.783C955.1 260.798 955.365 261.737 955.668 262.6H940.472ZM924.027 263.986C920.635 263.986 917.66 263.463 915.101 262.418C912.542 261.358 910.543 259.761 909.104 257.626C907.681 255.491 906.969 252.871 906.969 249.767C906.969 247.026 907.567 244.656 908.764 242.657C909.96 240.658 911.868 239.031 914.488 237.774C917.122 236.502 920.545 235.654 924.754 235.23L932.727 234.435C934.15 234.299 935.301 234.071 936.179 233.753C937.073 233.42 937.739 232.958 938.178 232.368C938.632 231.762 938.859 230.975 938.859 230.006L940.745 233.958C940.608 236.123 940.336 237.781 939.927 238.932C939.533 240.068 938.89 240.916 937.996 241.476C937.118 242.021 935.831 242.4 934.135 242.612L929.024 243.248C927.495 243.43 926.261 243.748 925.322 244.202C924.383 244.656 923.702 245.247 923.278 245.973C922.854 246.7 922.642 247.586 922.642 248.631C922.642 249.767 922.884 250.728 923.369 251.516C923.868 252.288 924.618 252.878 925.617 253.287C926.617 253.681 927.851 253.878 929.32 253.878C931.182 253.878 932.833 253.537 934.271 252.856C935.71 252.159 936.83 251.114 937.633 249.721C938.451 248.313 938.859 246.572 938.859 244.497H941.267L941.313 250.63C940.919 253.416 939.995 255.809 938.541 257.807C937.103 259.806 935.157 261.336 932.704 262.396C930.251 263.456 927.359 263.986 924.027 263.986ZM957.842 262.6V215.719H972.879V228.098H973.242V262.6H957.842ZM971.516 233.004C971.516 229.461 972.046 226.341 973.106 223.646C974.181 220.935 975.817 218.815 978.012 217.286C980.208 215.757 982.949 214.992 986.235 214.992C986.795 214.992 987.325 215.015 987.825 215.06C988.339 215.09 988.839 215.143 989.324 215.219V229.165C988.703 229.165 988.09 229.165 987.484 229.165C986.878 229.165 986.288 229.165 985.712 229.165C983.017 229.165 980.746 229.627 978.898 230.551C977.051 231.459 975.642 232.868 974.673 234.776C973.719 236.668 973.242 239.068 973.242 241.976H971.516V233.004ZM990.242 269.687C991.726 269.687 993.029 269.687 994.149 269.687C995.285 269.687 996.299 269.687 997.193 269.687C998.51 269.687 999.616 269.49 1000.51 269.096C1001.4 268.718 1002.12 268.157 1002.67 267.415C1003.21 266.673 1003.65 265.734 1003.98 264.599L1005.73 258.898L1006.07 266.847L986.812 215.719H1003.28L1010.14 238.819C1010.84 241.257 1011.51 243.884 1012.16 246.7C1012.81 249.502 1013.43 252.371 1014 255.309L1011.53 255.332C1012.31 251.849 1013.03 248.782 1013.68 246.132C1014.33 243.467 1014.97 241.045 1015.59 238.864L1022.27 215.719H1038.24L1019.86 265.893C1018.33 270.043 1016.7 273.192 1014.95 275.342C1013.23 277.508 1011 279.045 1008.25 279.953C1005.53 280.862 1001.84 281.316 997.193 281.316C995.996 281.316 994.868 281.301 993.808 281.271C992.764 281.24 991.575 281.195 990.242 281.134V269.687Z" fill="#E2E2E2"/>
</svg>
